<?xml version="1.0" encoding="UTF-8" standalone="no"?>
<!DOCTYPE svg PUBLIC "-//W3C//DTD SVG 1.1//EN" "http://www.w3.org/Graphics/SVG/1.1/DTD/svg11.dtd">
<!-- Generated by graphviz version 2.26.3 (20100126.1600)
 -->
<!-- Title: test Pages: 1 -->
<svg width="2192pt" height="870pt" viewBox="0.00 0.00 2192.00 870.00" xmlns="http://www.w3.org/2000/svg" xmlns:xlink="http://www.w3.org/1999/xlink">
<g id="graph1" class="graph" transform="scale(1) rotate(0) translate(4, 866)">
<title>test</title>
<polygon fill="white" stroke="white" points="-4,5 -4,-866 2189,-866 2189,5 -4,5"/>
<!-- node1 -->
<g id="node1" class="node"><title>node1</title>
<ellipse fill="lightgrey" stroke="black" cx="1700" cy="-792" rx="266.079" ry="69.2965"/>
<text text-anchor="middle" x="1700" y="-824.4" font-family="Times Roman,serif" font-size="14.00">-*- 1101: Automatisk synkning av wp-användare -*-</text>
<text text-anchor="middle" x="1700" y="-806.4" font-family="Times Roman,serif" font-size="14.00">resolution_progressive_weight --&gt; 7</text>
<text text-anchor="middle" x="1700" y="-788.4" font-family="Times Roman,serif" font-size="14.00">has_url --&gt; http://aktivdemokrati.se/forum/v...</text>
<text text-anchor="middle" x="1700" y="-770.4" font-family="Times Roman,serif" font-size="14.00">has_body --&gt; Se till att medlemmar och röstbe...</text>
<text text-anchor="middle" x="1700" y="-752.4" font-family="Times Roman,serif" font-size="14.00">proposition_resolved_date --&gt; 2011-03-15 00.29</text>
</g>
<!-- node2 -->
<g id="node2" class="node"><title>node2</title>
<ellipse fill="lightgrey" stroke="black" cx="1038" cy="-479" rx="258.094" ry="31.1127"/>
<text text-anchor="middle" x="1038" y="-484.4" font-family="Times Roman,serif" font-size="14.00">-*- 759: Yay/nay proposition -*-</text>
<text text-anchor="middle" x="1038" y="-466.4" font-family="Times Roman,serif" font-size="14.00">description --&gt; Proposition to be passed or refused</text>
</g>
<!-- node1&#45;&gt;node2 -->
<g id="edge18" class="edge"><title>node1-&gt;node2</title>
<path fill="none" stroke="black" d="M1450.69,-767.725C1247.62,-745.369 989.348,-709.992 957,-672 918.079,-626.288 963.133,-559.192 999.982,-517.353"/>
<polygon fill="black" stroke="black" points="1002.65,-519.618 1006.74,-509.846 997.451,-514.933 1002.65,-519.618"/>
<text text-anchor="middle" x="961" y="-625.5" font-family="Times Roman,serif" font-size="10.00">is</text>
</g>
<!-- node8 -->
<g id="node8" class="node"><title>node8</title>
<ellipse fill="lightgrey" stroke="black" cx="1498" cy="-628" rx="91.9239" ry="31.1127"/>
<text text-anchor="middle" x="1498" y="-633.4" font-family="Times Roman,serif" font-size="14.00">-*- 2044: Yay -*-</text>
<text text-anchor="middle" x="1498" y="-615.4" font-family="Times Roman,serif" font-size="14.00">weight --&gt; 1</text>
</g>
<!-- node1&#45;&gt;node8 -->
<g id="edge16" class="edge"><title>node1-&gt;node8</title>
<path fill="none" stroke="black" d="M1618.42,-725.768C1592.09,-704.39 1563.93,-681.527 1541.47,-663.29"/>
<polygon fill="black" stroke="black" points="1543.43,-660.377 1533.46,-656.791 1539.02,-665.811 1543.43,-660.377"/>
<text text-anchor="middle" x="1634.5" y="-694.5" font-family="Times Roman,serif" font-size="10.00">has_resolution_vote</text>
</g>
<!-- node11 -->
<g id="node11" class="node"><title>node11</title>
<ellipse fill="lightgrey" stroke="black" cx="604" cy="-628" rx="220.825" ry="18.3848"/>
<text text-anchor="middle" x="604" y="-624.4" font-family="Times Roman,serif" font-size="14.00">-*- 836: resolution_method_progressive -*-</text>
</g>
<!-- node1&#45;&gt;node11 -->
<g id="edge20" class="edge"><title>node1-&gt;node11</title>
<path fill="none" stroke="black" d="M1436.36,-781.93C1260.41,-771.231 1024.81,-749.22 821,-704 763.033,-691.139 699.165,-667.564 655.825,-650.069"/>
<polygon fill="black" stroke="black" points="656.937,-646.742 646.356,-646.211 654.296,-653.225 656.937,-646.742"/>
<text text-anchor="middle" x="877.5" y="-694.5" font-family="Times Roman,serif" font-size="10.00">has_resolution_method</text>
</g>
<!-- node16 -->
<g id="node16" class="node"><title>node16</title>
<ellipse fill="lightgrey" stroke="black" cx="1700" cy="-628" rx="91.9239" ry="43.8406"/>
<text text-anchor="middle" x="1700" y="-642.4" font-family="Times Roman,serif" font-size="14.00">-*- 1131: Yay -*-</text>
<text text-anchor="middle" x="1700" y="-624.4" font-family="Times Roman,serif" font-size="14.00">weight --&gt; 1</text>
<text text-anchor="middle" x="1700" y="-606.4" font-family="Times Roman,serif" font-size="14.00">code --&gt; 1</text>
</g>
<!-- node1&#45;&gt;node16 -->
<g id="edge4" class="edge"><title>node1-&gt;node16</title>
<path fill="none" stroke="black" d="M1700,-722.449C1700,-709.085 1700,-695.27 1700,-682.467"/>
<polygon fill="black" stroke="black" points="1703.5,-682.445 1700,-672.445 1696.5,-682.445 1703.5,-682.445"/>
<text text-anchor="middle" x="1722" y="-694.5" font-family="Times Roman,serif" font-size="10.00">has_vote</text>
</g>
<!-- node17 -->
<g id="node17" class="node"><title>node17</title>
<ellipse fill="lightgrey" stroke="black" cx="1069" cy="-628" rx="94.7523" ry="43.8406"/>
<text text-anchor="middle" x="1069" y="-642.4" font-family="Times Roman,serif" font-size="14.00">-*- 1377: Nay -*-</text>
<text text-anchor="middle" x="1069" y="-624.4" font-family="Times Roman,serif" font-size="14.00">weight --&gt; -1</text>
<text text-anchor="middle" x="1069" y="-606.4" font-family="Times Roman,serif" font-size="14.00">code --&gt; -1</text>
</g>
<!-- node1&#45;&gt;node17 -->
<g id="edge14" class="edge"><title>node1-&gt;node17</title>
<path fill="none" stroke="black" d="M1483.25,-751.639C1387.15,-731.45 1273.35,-704.375 1173,-672 1164.37,-669.215 1155.46,-666 1146.66,-662.601"/>
<polygon fill="black" stroke="black" points="1147.75,-659.269 1137.16,-658.851 1145.18,-665.78 1147.75,-659.269"/>
<text text-anchor="middle" x="1295" y="-694.5" font-family="Times Roman,serif" font-size="10.00">has_vote</text>
</g>
<!-- node18 -->
<g id="node18" class="node"><title>node18</title>
<ellipse fill="lightgrey" stroke="black" cx="1285" cy="-628" rx="103.238" ry="18.3848"/>
<text text-anchor="middle" x="1285" y="-624.4" font-family="Times Roman,serif" font-size="14.00">-*- 1368: Blank -*-</text>
</g>
<!-- node1&#45;&gt;node18 -->
<g id="edge12" class="edge"><title>node1-&gt;node18</title>
<path fill="none" stroke="black" d="M1553.1,-733.949C1477.88,-704.221 1391,-669.889 1337.03,-648.559"/>
<polygon fill="black" stroke="black" points="1338.26,-645.282 1327.67,-644.862 1335.68,-651.792 1338.26,-645.282"/>
<text text-anchor="middle" x="1489" y="-694.5" font-family="Times Roman,serif" font-size="10.00">has_vote</text>
</g>
<!-- node19 -->
<g id="node19" class="node"><title>node19</title>
<a xlink:href="http://ad.alternativ.se/rb/node/graph/?expand=1131;expand=1377;expand=1368;expand=2044;expand=759;expand=754;expand=703;expand=971;expand=715;expand=836;expand=32;expand=698;expand=2329;expand=2405;expand=737;expand=894;expand=826;expand=831;expand=821;id=1101&amp;expand=1320" xlink:title="Nay">
<ellipse fill="lightgrey" stroke="black" cx="1841" cy="-628" rx="31.1127" ry="18.3848"/>
<text text-anchor="middle" x="1841" y="-624.4" font-family="Times Roman,serif" font-size="14.00">Nay</text>
</a>
</g>
<!-- node1&#45;&gt;node19 -->
<g id="edge10" class="edge"><title>node1-&gt;node19</title>
<path fill="none" stroke="black" d="M1758.57,-723.874C1780.32,-698.576 1803.63,-671.463 1819.89,-652.548"/>
<polygon fill="black" stroke="black" points="1822.76,-654.586 1826.62,-644.722 1817.45,-650.023 1822.76,-654.586"/>
<text text-anchor="middle" x="1809" y="-694.5" font-family="Times Roman,serif" font-size="10.00">has_vote</text>
</g>
<!-- node20 -->
<g id="node20" class="node"><title>node20</title>
<a xlink:href="http://ad.alternativ.se/rb/node/graph/?expand=1131;expand=1377;expand=1368;expand=2044;expand=759;expand=754;expand=703;expand=971;expand=715;expand=836;expand=32;expand=698;expand=2329;expand=2405;expand=737;expand=894;expand=826;expand=831;expand=821;id=1101&amp;expand=1234" xlink:title="Nay">
<ellipse fill="lightgrey" stroke="black" cx="1921" cy="-628" rx="31.1127" ry="18.3848"/>
<text text-anchor="middle" x="1921" y="-624.4" font-family="Times Roman,serif" font-size="14.00">Nay</text>
</a>
</g>
<!-- node1&#45;&gt;node20 -->
<g id="edge8" class="edge"><title>node1-&gt;node20</title>
<path fill="none" stroke="black" d="M1806.88,-728.046C1832.16,-711.077 1858.33,-691.897 1881,-672 1887.8,-666.028 1894.64,-658.985 1900.69,-652.305"/>
<polygon fill="black" stroke="black" points="1903.39,-654.533 1907.38,-644.716 1898.14,-649.904 1903.39,-654.533"/>
<text text-anchor="middle" x="1880" y="-694.5" font-family="Times Roman,serif" font-size="10.00">has_vote</text>
</g>
<!-- node21 -->
<g id="node21" class="node"><title>node21</title>
<a xlink:href="http://ad.alternativ.se/rb/node/graph/?expand=1131;expand=1377;expand=1368;expand=2044;expand=759;expand=754;expand=703;expand=971;expand=715;expand=836;expand=32;expand=698;expand=2329;expand=2405;expand=737;expand=894;expand=826;expand=831;expand=821;id=1101&amp;expand=1159" xlink:title="Yay">
<ellipse fill="lightgrey" stroke="black" cx="1998" cy="-628" rx="27.7881" ry="18.3848"/>
<text text-anchor="middle" x="1998" y="-624.4" font-family="Times Roman,serif" font-size="14.00">Yay</text>
</a>
</g>
<!-- node1&#45;&gt;node21 -->
<g id="edge6" class="edge"><title>node1-&gt;node21</title>
<path fill="none" stroke="black" d="M1857.85,-735.923C1893.99,-718.763 1930.66,-697.52 1961,-672 1967.55,-666.489 1973.87,-659.731 1979.37,-653.181"/>
<polygon fill="black" stroke="black" points="1982.32,-655.091 1985.86,-645.104 1976.87,-650.706 1982.32,-655.091"/>
<text text-anchor="middle" x="1958" y="-694.5" font-family="Times Roman,serif" font-size="10.00">has_vote</text>
</g>
<!-- node22 -->
<g id="node22" class="node"><title>node22</title>
<a xlink:href="http://ad.alternativ.se/rb/node/graph/?expand=1131;expand=1377;expand=1368;expand=2044;expand=759;expand=754;expand=703;expand=971;expand=715;expand=836;expand=32;expand=698;expand=2329;expand=2405;expand=737;expand=894;expand=826;expand=831;expand=821;id=1101&amp;expand=1118" xlink:title="Yay">
<ellipse fill="lightgrey" stroke="black" cx="2072" cy="-628" rx="27.7881" ry="18.3848"/>
<text text-anchor="middle" x="2072" y="-624.4" font-family="Times Roman,serif" font-size="14.00">Yay</text>
</a>
</g>
<!-- node1&#45;&gt;node22 -->
<g id="edge2" class="edge"><title>node1-&gt;node22</title>
<path fill="none" stroke="black" d="M1885.56,-742.148C1918.91,-731.046 1952.92,-718.269 1984,-704 2008.32,-692.835 2014.81,-689.564 2035,-672 2041.46,-666.381 2047.74,-659.587 2053.25,-653.036"/>
<polygon fill="black" stroke="black" points="2056.19,-654.956 2059.75,-644.977 2050.75,-650.56 2056.19,-654.956"/>
<text text-anchor="middle" x="2033" y="-694.5" font-family="Times Roman,serif" font-size="10.00">has_vote</text>
</g>
<!-- node23 -->
<g id="node23" class="node"><title>node23</title>
<ellipse fill="lightgrey" stroke="black" cx="2092" cy="-547" rx="91.9239" ry="18.3848"/>
<text text-anchor="middle" x="2092" y="-543.4" font-family="Times Roman,serif" font-size="14.00">-*- 971: GOV -*-</text>
</g>
<!-- node1&#45;&gt;node23 -->
<g id="edge22" class="edge"><title>node1-&gt;node23</title>
<path fill="none" stroke="black" d="M1915.91,-751.276C1963.99,-738.872 2014.02,-723.273 2059,-704 2083.25,-693.608 2096.33,-695.144 2109,-672 2127.78,-637.691 2117.36,-622.208 2109,-584 2108.34,-580.989 2107.41,-577.931 2106.33,-574.929"/>
<polygon fill="black" stroke="black" points="2109.54,-573.537 2102.46,-565.656 2103.08,-576.233 2109.54,-573.537"/>
<text text-anchor="middle" x="2120" y="-694.5" font-family="Times Roman,serif" font-size="10.00">subsides_in</text>
</g>
<!-- node3 -->
<g id="node3" class="node"><title>node3</title>
<ellipse fill="lightgrey" stroke="black" cx="1006" cy="-287" rx="198.904" ry="31.1127"/>
<text text-anchor="middle" x="1006" y="-292.4" font-family="Times Roman,serif" font-size="14.00">-*- 754: GOV::Proposition::Yay_Nay -*-</text>
<text text-anchor="middle" x="1006" y="-274.4" font-family="Times Roman,serif" font-size="14.00">code --&gt; GOV::Proposition::Yay_Nay</text>
</g>
<!-- node2&#45;&gt;node3 -->
<g id="edge60" class="edge"><title>node2-&gt;node3</title>
<path fill="none" stroke="black" d="M1013.97,-447.903C1010.69,-442.218 1007.83,-436.135 1006,-430 996.129,-396.834 997.007,-357.392 999.855,-328.34"/>
<polygon fill="black" stroke="black" points="1003.36,-328.461 1000.98,-318.138 996.405,-327.695 1003.36,-328.461"/>
<text text-anchor="middle" x="1080.5" y="-420.5" font-family="Times Roman,serif" font-size="10.00">class_handled_by_perl_module</text>
</g>
<!-- node6 -->
<g id="node6" class="node"><title>node6</title>
<ellipse fill="lightgrey" stroke="black" cx="1237" cy="-367" rx="203.146" ry="31.1127"/>
<text text-anchor="middle" x="1237" y="-372.4" font-family="Times Roman,serif" font-size="14.00">-*- 703: proposition -*-</text>
<text text-anchor="middle" x="1237" y="-354.4" font-family="Times Roman,serif" font-size="14.00">class_form_url --&gt; proposition/display.tt</text>
</g>
<!-- node2&#45;&gt;node6 -->
<g id="edge58" class="edge"><title>node2-&gt;node6</title>
<path fill="none" stroke="black" d="M1120.28,-449.512C1133.55,-443.679 1146.89,-437.129 1159,-430 1171.43,-422.68 1183.99,-413.497 1195.29,-404.423"/>
<polygon fill="black" stroke="black" points="1197.77,-406.916 1203.28,-397.864 1193.33,-401.507 1197.77,-406.916"/>
<text text-anchor="middle" x="1190" y="-420.5" font-family="Times Roman,serif" font-size="10.00">scof</text>
</g>
<!-- node4 -->
<g id="node4" class="node"><title>node4</title>
<ellipse fill="lightgrey" stroke="black" cx="1212" cy="-107" rx="149.907" ry="18.3848"/>
<text text-anchor="middle" x="1212" y="-103.4" font-family="Times Roman,serif" font-size="14.00">-*- 32: class_perl_module -*-</text>
</g>
<!-- node3&#45;&gt;node4 -->
<g id="edge56" class="edge"><title>node3-&gt;node4</title>
<path fill="none" stroke="black" d="M1009.27,-255.871C1013.36,-231.39 1022.52,-197.873 1043,-176 1065.08,-152.41 1096.39,-136.666 1126.06,-126.259"/>
<polygon fill="black" stroke="black" points="1127.25,-129.553 1135.62,-123.065 1125.03,-122.913 1127.25,-129.553"/>
<text text-anchor="middle" x="1047" y="-204.5" font-family="Times Roman,serif" font-size="10.00">is</text>
</g>
<!-- node5 -->
<g id="node5" class="node"><title>node5</title>
<ellipse fill="lightgrey" stroke="black" cx="1392" cy="-19" rx="85.0596" ry="18.3848"/>
<text text-anchor="middle" x="1392" y="-15.4" font-family="Times Roman,serif" font-size="14.00">-*- 31: class -*-</text>
</g>
<!-- node4&#45;&gt;node5 -->
<g id="edge40" class="edge"><title>node4-&gt;node5</title>
<path fill="none" stroke="black" d="M1248.86,-88.9795C1277.66,-74.8984 1317.78,-55.2866 1348.21,-40.4062"/>
<polygon fill="black" stroke="black" points="1349.88,-43.4879 1357.33,-35.9514 1346.81,-37.1992 1349.88,-43.4879"/>
<text text-anchor="middle" x="1317" y="-60.5" font-family="Times Roman,serif" font-size="10.00">is</text>
</g>
<!-- node5&#45;&gt;node5 -->
<g id="edge38" class="edge"><title>node5-&gt;node5</title>
<path fill="none" stroke="black" d="M1469.26,-26.8829C1484.31,-25.9675 1495,-23.3398 1495,-19 1495,-15.7112 1488.86,-13.4057 1479.34,-12.0835"/>
<polygon fill="black" stroke="black" points="1479.55,-8.58769 1469.26,-11.1171 1478.88,-15.5557 1479.55,-8.58769"/>
<text text-anchor="middle" x="1499" y="-16.5" font-family="Times Roman,serif" font-size="10.00">is</text>
</g>
<!-- node6&#45;&gt;node5 -->
<g id="edge44" class="edge"><title>node6-&gt;node5</title>
<path fill="none" stroke="black" d="M1339.36,-340.093C1357.29,-333.413 1372.11,-325.89 1378,-318 1409.37,-275.998 1399.99,-114.469 1394.61,-47.9157"/>
<polygon fill="black" stroke="black" points="1398.07,-47.3934 1393.75,-37.7206 1391.1,-47.978 1398.07,-47.3934"/>
<text text-anchor="middle" x="1404" y="-148.5" font-family="Times Roman,serif" font-size="10.00">is</text>
</g>
<!-- node7 -->
<g id="node7" class="node"><title>node7</title>
<ellipse fill="lightgrey" stroke="black" cx="1212" cy="-207" rx="152.028" ry="31.1127"/>
<text text-anchor="middle" x="1212" y="-212.4" font-family="Times Roman,serif" font-size="14.00">-*- 698: GOV::Proposition -*-</text>
<text text-anchor="middle" x="1212" y="-194.4" font-family="Times Roman,serif" font-size="14.00">code --&gt; GOV::Proposition</text>
</g>
<!-- node6&#45;&gt;node7 -->
<g id="edge46" class="edge"><title>node6-&gt;node7</title>
<path fill="none" stroke="black" d="M1231.88,-335.902C1230.91,-329.96 1229.92,-323.789 1229,-318 1225.35,-294.938 1221.4,-269.16 1218.22,-248.255"/>
<polygon fill="black" stroke="black" points="1221.64,-247.475 1216.68,-238.113 1214.72,-248.524 1221.64,-247.475"/>
<text text-anchor="middle" x="1303.5" y="-284.5" font-family="Times Roman,serif" font-size="10.00">class_handled_by_perl_module</text>
</g>
<!-- node7&#45;&gt;node4 -->
<g id="edge42" class="edge"><title>node7-&gt;node4</title>
<path fill="none" stroke="black" d="M1212,-175.908C1212,-163.136 1212,-148.435 1212,-135.9"/>
<polygon fill="black" stroke="black" points="1215.5,-135.546 1212,-125.546 1208.5,-135.546 1215.5,-135.546"/>
<text text-anchor="middle" x="1216" y="-148.5" font-family="Times Roman,serif" font-size="10.00">is</text>
</g>
<!-- node9 -->
<g id="node9" class="node"><title>node9</title>
<ellipse fill="lightgrey" stroke="black" cx="1498" cy="-479" rx="90.0096" ry="18.3848"/>
<text text-anchor="middle" x="1498" y="-475.4" font-family="Times Roman,serif" font-size="14.00">-*- 737: vote -*-</text>
</g>
<!-- node8&#45;&gt;node9 -->
<g id="edge30" class="edge"><title>node8-&gt;node9</title>
<path fill="none" stroke="black" d="M1498,-596.765C1498,-570.482 1498,-533.204 1498,-507.671"/>
<polygon fill="black" stroke="black" points="1501.5,-507.513 1498,-497.513 1494.5,-507.513 1501.5,-507.513"/>
<text text-anchor="middle" x="1502" y="-544.5" font-family="Times Roman,serif" font-size="10.00">is</text>
</g>
<!-- node9&#45;&gt;node5 -->
<g id="edge52" class="edge"><title>node9-&gt;node5</title>
<path fill="none" stroke="black" d="M1559.73,-465.381C1595.45,-456.286 1635.71,-443.543 1648,-430 1667.27,-408.758 1662,-395.683 1662,-367 1662,-367 1662,-367 1662,-107 1662,-67.285 1555.06,-42.7046 1475.79,-29.939"/>
<polygon fill="black" stroke="black" points="1476.2,-26.461 1465.78,-28.3656 1475.11,-33.376 1476.2,-26.461"/>
<text text-anchor="middle" x="1666" y="-204.5" font-family="Times Roman,serif" font-size="10.00">is</text>
</g>
<!-- node10 -->
<g id="node10" class="node"><title>node10</title>
<ellipse fill="lightgrey" stroke="black" cx="1527" cy="-287" rx="120.208" ry="31.1127"/>
<text text-anchor="middle" x="1527" y="-292.4" font-family="Times Roman,serif" font-size="14.00">-*- 894: GOV::Vote -*-</text>
<text text-anchor="middle" x="1527" y="-274.4" font-family="Times Roman,serif" font-size="14.00">code --&gt; GOV::Vote</text>
</g>
<!-- node9&#45;&gt;node10 -->
<g id="edge54" class="edge"><title>node9-&gt;node10</title>
<path fill="none" stroke="black" d="M1497.33,-460.468C1497.12,-447.884 1497.28,-430.888 1499,-416 1502.44,-386.186 1509.69,-353.117 1515.95,-327.926"/>
<polygon fill="black" stroke="black" points="1519.4,-328.545 1518.46,-317.991 1512.61,-326.824 1519.4,-328.545"/>
<text text-anchor="middle" x="1573.5" y="-420.5" font-family="Times Roman,serif" font-size="10.00">class_handled_by_perl_module</text>
</g>
<!-- node10&#45;&gt;node4 -->
<g id="edge72" class="edge"><title>node10-&gt;node4</title>
<path fill="none" stroke="black" d="M1509.33,-256.213C1488.56,-222.985 1450.89,-171.183 1404,-144 1389.57,-135.632 1357.91,-128.235 1324.38,-122.297"/>
<polygon fill="black" stroke="black" points="1324.86,-118.828 1314.42,-120.582 1323.68,-125.727 1324.86,-118.828"/>
<text text-anchor="middle" x="1500" y="-204.5" font-family="Times Roman,serif" font-size="10.00">is</text>
</g>
<!-- node12 -->
<g id="node12" class="node"><title>node12</title>
<ellipse fill="lightgrey" stroke="black" cx="506" cy="-479" rx="255.973" ry="18.3848"/>
<text text-anchor="middle" x="506" y="-475.4" font-family="Times Roman,serif" font-size="14.00">-*- 2329: resolution_method_progressive_class -*-</text>
</g>
<!-- node11&#45;&gt;node12 -->
<g id="edge70" class="edge"><title>node11-&gt;node12</title>
<path fill="none" stroke="black" d="M591.786,-609.43C574.768,-583.555 543.796,-536.466 524.093,-506.508"/>
<polygon fill="black" stroke="black" points="526.787,-504.235 518.368,-497.804 520.939,-508.082 526.787,-504.235"/>
<text text-anchor="middle" x="565" y="-544.5" font-family="Times Roman,serif" font-size="10.00">is</text>
</g>
<!-- node13 -->
<g id="node13" class="node"><title>node13</title>
<ellipse fill="lightgrey" stroke="black" cx="558" cy="-287" rx="244.159" ry="31.1127"/>
<text text-anchor="middle" x="558" y="-292.4" font-family="Times Roman,serif" font-size="14.00">-*- 831: GOV::Resolution::Method::Progres... -*-</text>
<text text-anchor="middle" x="558" y="-274.4" font-family="Times Roman,serif" font-size="14.00">code --&gt; GOV::Resolution::Method::Progres...</text>
</g>
<!-- node12&#45;&gt;node13 -->
<g id="edge34" class="edge"><title>node12-&gt;node13</title>
<path fill="none" stroke="black" d="M511.081,-460.241C519.344,-429.73 535.883,-368.664 546.949,-327.803"/>
<polygon fill="black" stroke="black" points="550.331,-328.704 549.567,-318.137 543.575,-326.874 550.331,-328.704"/>
<text text-anchor="middle" x="597.5" y="-420.5" font-family="Times Roman,serif" font-size="10.00">class_handled_by_perl_module</text>
</g>
<!-- node14 -->
<g id="node14" class="node"><title>node14</title>
<ellipse fill="lightgrey" stroke="black" cx="160" cy="-367" rx="160.013" ry="18.3848"/>
<text text-anchor="middle" x="160" y="-363.4" font-family="Times Roman,serif" font-size="14.00">-*- 826: resolution_method -*-</text>
</g>
<!-- node12&#45;&gt;node14 -->
<g id="edge32" class="edge"><title>node12-&gt;node14</title>
<path fill="none" stroke="black" d="M450.025,-460.881C388.08,-440.829 288.453,-408.58 223.603,-387.588"/>
<polygon fill="black" stroke="black" points="224.493,-384.198 213.901,-384.448 222.337,-390.857 224.493,-384.198"/>
<text text-anchor="middle" x="364" y="-420.5" font-family="Times Roman,serif" font-size="10.00">scof</text>
</g>
<!-- node13&#45;&gt;node4 -->
<g id="edge68" class="edge"><title>node13-&gt;node4</title>
<path fill="none" stroke="black" d="M654.608,-258.396C755.662,-228.744 919.037,-181.559 1061,-144 1084.29,-137.839 1109.69,-131.476 1132.9,-125.802"/>
<polygon fill="black" stroke="black" points="1133.82,-129.182 1142.71,-123.415 1132.16,-122.38 1133.82,-129.182"/>
<text text-anchor="middle" x="947" y="-204.5" font-family="Times Roman,serif" font-size="10.00">is</text>
</g>
<!-- node14&#45;&gt;node5 -->
<g id="edge64" class="edge"><title>node14-&gt;node5</title>
<path fill="none" stroke="black" d="M149.947,-348.194C139.117,-325.162 125.398,-285.569 141,-256 170.397,-200.287 199.239,-198.701 258,-176 449.132,-102.162 1067.99,-45.4201 1301.6,-26.1332"/>
<polygon fill="black" stroke="black" points="1302.09,-29.6056 1311.77,-25.298 1301.51,-22.6291 1302.09,-29.6056"/>
<text text-anchor="middle" x="369" y="-148.5" font-family="Times Roman,serif" font-size="10.00">is</text>
</g>
<!-- node15 -->
<g id="node15" class="node"><title>node15</title>
<ellipse fill="lightgrey" stroke="black" cx="458" cy="-207" rx="191.126" ry="31.1127"/>
<text text-anchor="middle" x="458" y="-212.4" font-family="Times Roman,serif" font-size="14.00">-*- 821: GOV::Resolution::Method -*-</text>
<text text-anchor="middle" x="458" y="-194.4" font-family="Times Roman,serif" font-size="14.00">code --&gt; GOV::Resolution::Method</text>
</g>
<!-- node14&#45;&gt;node15 -->
<g id="edge66" class="edge"><title>node14-&gt;node15</title>
<path fill="none" stroke="black" d="M152.484,-348.414C144.031,-324.135 134.132,-281.702 156,-256 165.618,-244.696 224.405,-233.922 287.594,-225.37"/>
<polygon fill="black" stroke="black" points="288.315,-228.805 297.766,-224.017 287.392,-221.866 288.315,-228.805"/>
<text text-anchor="middle" x="230.5" y="-284.5" font-family="Times Roman,serif" font-size="10.00">class_handled_by_perl_module</text>
</g>
<!-- node15&#45;&gt;node4 -->
<g id="edge62" class="edge"><title>node15-&gt;node4</title>
<path fill="none" stroke="black" d="M589.386,-184.468C667.076,-171.591 767.473,-155.725 857,-144 930.928,-134.318 1013.79,-125.563 1080.85,-119.004"/>
<polygon fill="black" stroke="black" points="1081.43,-122.463 1091.05,-118.011 1080.75,-115.496 1081.43,-122.463"/>
<text text-anchor="middle" x="861" y="-148.5" font-family="Times Roman,serif" font-size="10.00">is</text>
</g>
<!-- node16&#45;&gt;node9 -->
<g id="edge24" class="edge"><title>node16-&gt;node9</title>
<path fill="none" stroke="black" d="M1649.81,-590.977C1612.48,-563.444 1562.64,-526.677 1530.42,-502.917"/>
<polygon fill="black" stroke="black" points="1532.36,-499.994 1522.23,-496.875 1528.2,-505.627 1532.36,-499.994"/>
<text text-anchor="middle" x="1615" y="-544.5" font-family="Times Roman,serif" font-size="10.00">is</text>
</g>
<!-- node17&#45;&gt;node9 -->
<g id="edge28" class="edge"><title>node17-&gt;node9</title>
<path fill="none" stroke="black" d="M1138.31,-597.682C1149.83,-592.931 1161.7,-588.206 1173,-584 1263.65,-550.255 1370.73,-516.881 1436.5,-497.108"/>
<polygon fill="black" stroke="black" points="1437.72,-500.396 1446.3,-494.172 1435.71,-493.691 1437.72,-500.396"/>
<text text-anchor="middle" x="1336" y="-544.5" font-family="Times Roman,serif" font-size="10.00">is</text>
</g>
<!-- node18&#45;&gt;node9 -->
<g id="edge26" class="edge"><title>node18-&gt;node9</title>
<path fill="none" stroke="black" d="M1310.69,-610.027C1349.1,-583.162 1421.51,-532.507 1464.17,-502.662"/>
<polygon fill="black" stroke="black" points="1466.36,-505.405 1472.55,-496.805 1462.35,-499.669 1466.36,-505.405"/>
<text text-anchor="middle" x="1427" y="-544.5" font-family="Times Roman,serif" font-size="10.00">is</text>
</g>
<!-- node24 -->
<g id="node24" class="node"><title>node24</title>
<ellipse fill="lightgrey" stroke="black" cx="1978" cy="-367" rx="149.907" ry="18.3848"/>
<text text-anchor="middle" x="1978" y="-363.4" font-family="Times Roman,serif" font-size="14.00">-*- 715: proposition_area -*-</text>
</g>
<!-- node23&#45;&gt;node24 -->
<g id="edge74" class="edge"><title>node23-&gt;node24</title>
<path fill="none" stroke="black" d="M2080.23,-528.415C2060.04,-496.534 2018.72,-431.288 1995.26,-394.254"/>
<polygon fill="black" stroke="black" points="1998.01,-392.06 1989.71,-385.484 1992.1,-395.805 1998.01,-392.06"/>
<text text-anchor="middle" x="2071" y="-476.5" font-family="Times Roman,serif" font-size="10.00">is</text>
</g>
<!-- node24&#45;&gt;node5 -->
<g id="edge50" class="edge"><title>node24-&gt;node5</title>
<path fill="none" stroke="black" d="M1980.77,-348.359C1985.21,-311.232 1989.67,-227.223 1949,-176 1866.59,-72.1967 1803.67,-91.5876 1676,-56 1613.55,-38.5925 1541.04,-29.3189 1484.92,-24.4094"/>
<polygon fill="black" stroke="black" points="1484.9,-20.8951 1474.64,-23.5424 1484.31,-27.8703 1484.9,-20.8951"/>
<text text-anchor="middle" x="1936" y="-148.5" font-family="Times Roman,serif" font-size="10.00">is</text>
</g>
<!-- node25 -->
<g id="node25" class="node"><title>node25</title>
<ellipse fill="lightgrey" stroke="black" cx="1814" cy="-207" rx="126.072" ry="31.1127"/>
<text text-anchor="middle" x="1814" y="-212.4" font-family="Times Roman,serif" font-size="14.00">-*- 2405: GOV::Area -*-</text>
<text text-anchor="middle" x="1814" y="-194.4" font-family="Times Roman,serif" font-size="14.00">code --&gt; GOV::Area</text>
</g>
<!-- node24&#45;&gt;node25 -->
<g id="edge48" class="edge"><title>node24-&gt;node25</title>
<path fill="none" stroke="black" d="M1894.75,-351.47C1860.02,-343.151 1825.33,-331.766 1815,-318 1800.35,-298.486 1799.95,-271.124 1803.28,-248.449"/>
<polygon fill="black" stroke="black" points="1806.76,-248.86 1805.04,-238.406 1799.87,-247.653 1806.76,-248.86"/>
<text text-anchor="middle" x="1889.5" y="-284.5" font-family="Times Roman,serif" font-size="10.00">class_handled_by_perl_module</text>
</g>
<!-- node25&#45;&gt;node4 -->
<g id="edge36" class="edge"><title>node25-&gt;node4</title>
<path fill="none" stroke="black" d="M1721.11,-185.884C1705.41,-182.472 1689.26,-179.059 1674,-176 1595.19,-160.197 1575.43,-156.307 1496,-144 1441.64,-135.578 1381.23,-127.526 1330.15,-121.096"/>
<polygon fill="black" stroke="black" points="1330.42,-117.603 1320.06,-119.832 1329.55,-124.548 1330.42,-117.603"/>
<text text-anchor="middle" x="1583" y="-148.5" font-family="Times Roman,serif" font-size="10.00">is</text>
</g>
</g>
</svg>